<?xml version="1.0" standalone="no"?>
<!DOCTYPE svg PUBLIC "-//W3C//DTD SVG 20010904//EN"
 "http://www.w3.org/TR/2001/REC-SVG-20010904/DTD/svg10.dtd">
<svg version="1.0" xmlns="http:/tes/www.w3.org/2000/svg"
 width="2128.000000pt" height="1536.000000pt" viewBox="0 0 2128.000000 1536.000000"
 preserveAspectRatio="xMidYMid meet">

<g transform="translate(0.000000,1536.000000) scale(0.100000,-0.100000)"
fill="#000000" stroke="none">
<path d="M2919 9020 c18 -4 43 -18 55 -29 l21 -22 0 -1225 0 -1226 -24 -19
c-13 -10 -34 -19 -47 -19 -12 0 -26 -5 -29 -10 -9 -14 890 -7 965 8 109 21
155 33 215 53 235 83 403 237 473 434 44 123 41 340 -7 460 -62 157 -179 275
-351 357 -67 32 -146 58 -176 58 -13 0 -26 5 -29 10 -3 6 -26 10 -51 10 -24 0
-44 3 -44 6 0 12 35 33 55 34 24 0 151 52 168 69 6 6 15 11 20 11 18 0 113 84
148 130 18 25 42 63 52 85 11 22 23 49 29 60 15 33 30 134 31 205 1 88 -17
174 -50 240 -24 47 -111 146 -166 188 -27 20 -130 72 -144 72 -7 0 -21 4 -31
9 -29 15 -85 30 -152 42 -74 14 -986 22 -931 9z m881 -37 c14 -6 50 -19 80
-29 114 -37 204 -115 253 -217 49 -103 52 -116 52 -272 0 -141 -9 -205 -36
-257 -5 -10 -9 -24 -9 -31 0 -8 -18 -40 -41 -72 -55 -79 -105 -126 -151 -141
-10 -4 -18 -10 -18 -14 0 -4 -26 -15 -57 -24 -32 -9 -72 -21 -89 -26 -17 -6
-153 -10 -302 -10 l-272 0 0 556 0 556 283 -4 c167 -3 292 -9 307 -15z m75
-1151 c227 -54 363 -173 445 -388 45 -119 45 -407 0 -528 -86 -228 -249 -358
-516 -410 -61 -12 -144 -16 -337 -16 l-257 0 0 680 0 681 308 -4 c189 -2 326
-8 357 -15z"/>
<path d="M4845 9023 c17 -3 42 -16 58 -31 l27 -26 0 -1218 0 -1219 -25 -24
c-13 -14 -33 -25 -44 -25 -11 0 -23 -4 -26 -10 -4 -7 247 -10 744 -10 737 0
751 0 751 19 0 11 4 22 9 25 5 3 12 21 15 39 3 19 15 52 26 74 10 21 22 53 26
69 4 16 11 35 17 42 6 8 6 12 0 12 -6 0 -24 -28 -42 -62 -36 -72 -52 -93 -101
-130 -76 -58 -82 -58 -632 -56 l-503 3 -3 618 -2 617 394 0 c442 0 422 3 450
-75 14 -39 15 -35 15 90 l0 130 -20 -46 c-12 -27 -31 -51 -45 -58 -17 -7 -145
-11 -409 -11 l-385 0 0 620 0 621 483 -3 482 -3 46 -32 c55 -38 98 -90 130
-156 24 -50 46 -66 28 -19 -7 15 -15 36 -19 47 -4 11 -12 31 -18 45 -5 14 -20
53 -32 88 l-22 62 -702 -1 c-385 -1 -687 -4 -671 -6z"/>
<path d="M6632 9023 c15 -2 41 -18 58 -34 l30 -31 0 -1208 0 -1209 -24 -27
c-13 -16 -39 -34 -57 -40 -30 -11 -19 -12 91 -13 l125 0 -42 19 c-23 10 -46
27 -52 38 -10 19 -18 2378 -8 2388 7 8 36 -33 261 -371 124 -187 230 -345 234
-350 5 -6 11 -15 13 -21 5 -12 641 -967 648 -974 8 -7 30 -41 38 -60 4 -8 9
-17 13 -20 11 -9 90 -132 90 -140 0 -5 4 -10 8 -12 8 -3 183 -263 191 -283 2
-5 7 -12 10 -15 4 -3 35 -49 71 -103 35 -54 70 -96 77 -95 11 2 13 222 13
1241 0 924 3 1244 12 1260 15 29 46 51 83 58 16 4 -28 6 -100 6 -71 0 -118 -2
-103 -4 15 -2 41 -18 58 -34 l30 -31 0 -1043 c0 -574 -3 -1046 -8 -1048 -6 -4
-155 205 -212 298 -46 75 -255 381 -262 383 -4 2 -8 7 -8 12 0 4 -19 36 -42
70 -45 64 -121 180 -160 240 -24 37 -73 110 -332 493 -89 131 -168 248 -176
260 -104 155 -247 372 -255 387 -9 19 -20 20 -175 19 -91 -1 -153 -4 -138 -6z"/>
<path d="M9750 9020 c19 -5 45 -21 58 -36 l23 -27 -3 -981 c-3 -679 -8 -990
-15 -1011 -6 -16 -19 -64 -28 -105 -36 -160 -133 -300 -244 -351 -25 -12 -57
-27 -70 -33 -15 -7 -87 -11 -180 -11 -128 0 -163 3 -193 18 -21 9 -54 25 -74
34 -46 21 -135 107 -157 153 -20 40 -47 148 -47 189 0 36 -28 61 -68 61 -26 0
-37 -7 -53 -32 -12 -21 -18 -42 -14 -58 3 -14 10 -44 15 -67 9 -40 41 -100 78
-144 24 -30 130 -103 177 -124 22 -9 49 -21 60 -26 73 -33 383 -46 490 -21 93
23 212 90 284 162 67 65 132 155 146 201 4 13 11 29 15 34 4 6 15 37 25 70 9
33 21 69 25 80 5 11 16 76 24 145 13 105 16 269 16 977 l0 852 33 24 c17 14
41 27 52 30 11 2 -77 5 -195 5 -133 0 -202 -3 -180 -8z"/>
<path d="M10420 9023 c14 -3 40 -16 58 -29 l32 -25 0 -1218 0 -1218 -25 -27
c-13 -14 -33 -26 -44 -26 -11 0 -23 -4 -26 -10 -4 -7 67 -10 207 -10 141 0
208 4 198 10 -8 5 -23 10 -33 10 -10 0 -29 11 -42 25 l-25 24 0 1215 0 1215
23 26 c12 15 38 30 57 35 22 5 -50 8 -185 8 -121 -1 -209 -3 -195 -5z"/>
<path d="M11335 9020 c11 -4 29 -10 40 -14 31 -11 49 -59 36 -98 -5 -18 -15
-94 -21 -168 -7 -74 -16 -166 -21 -205 -4 -38 -15 -140 -24 -225 -9 -85 -20
-186 -25 -225 -5 -38 -16 -140 -25 -225 -9 -85 -20 -189 -25 -230 -5 -41 -16
-140 -25 -220 -8 -80 -19 -179 -25 -220 -5 -41 -16 -145 -25 -230 -49 -462
-45 -447 -120 -481 l-40 -19 125 1 125 0 -45 17 c-59 23 -68 48 -52 145 6 39
14 115 17 167 3 52 10 111 15 130 5 19 14 94 20 165 7 72 16 164 21 205 4 41
15 143 24 225 9 83 20 184 25 225 5 41 16 143 25 225 9 83 20 182 24 220 5 39
17 140 26 225 9 85 21 191 26 235 5 44 12 110 15 148 3 37 9 67 13 67 8 0 24
-39 45 -110 9 -30 21 -64 26 -75 4 -11 16 -47 26 -80 9 -33 21 -64 25 -70 4
-5 10 -28 14 -50 4 -22 11 -44 15 -50 3 -5 66 -192 139 -415 130 -394 144
-437 161 -471 5 -9 12 -34 16 -55 3 -22 10 -43 13 -49 4 -5 16 -37 26 -70 10
-33 21 -69 25 -80 26 -66 25 -63 34 -100 4 -16 11 -39 16 -50 5 -11 16 -45 25
-75 10 -30 21 -62 26 -71 4 -9 11 -33 14 -53 4 -20 11 -39 16 -42 5 -3 9 -14
9 -25 0 -10 4 -27 9 -37 6 -9 18 -44 27 -77 10 -33 21 -64 25 -70 4 -5 10 -27
14 -48 4 -20 11 -40 16 -43 5 -3 9 -14 9 -25 0 -10 4 -27 9 -37 5 -9 14 -29
20 -44 18 -47 37 -33 60 45 69 222 104 337 117 375 8 23 14 49 14 57 0 9 4 23
9 33 5 9 17 44 26 77 9 33 20 69 25 80 4 11 16 49 25 85 9 36 21 74 25 85 5
11 16 47 25 80 9 33 20 67 25 75 4 9 11 35 15 58 4 23 11 44 16 48 5 3 9 18 9
35 0 16 4 29 9 29 5 0 12 22 16 50 4 27 11 52 16 56 5 3 9 16 9 29 0 13 4 26
9 30 6 3 13 26 17 50 3 25 10 48 15 51 5 3 9 16 9 29 0 13 4 26 9 29 4 3 11
24 15 46 3 23 10 49 15 58 12 23 41 121 41 138 0 8 4 22 9 32 5 9 17 44 26 77
10 33 21 69 25 80 4 11 18 54 30 95 12 41 33 111 47 155 14 44 32 107 41 139
13 49 17 56 27 43 6 -9 17 -63 24 -119 7 -57 15 -112 17 -123 3 -11 12 -72 21
-135 8 -63 19 -142 23 -175 9 -64 34 -246 50 -355 5 -36 16 -117 24 -180 8
-63 17 -124 20 -135 2 -11 12 -83 21 -160 9 -77 21 -154 26 -171 5 -17 9 -46
9 -65 0 -19 7 -72 15 -119 8 -47 15 -100 15 -119 0 -19 4 -48 9 -65 6 -17 15
-76 21 -131 7 -55 16 -131 20 -170 5 -38 6 -80 3 -93 -6 -24 -57 -57 -73 -47
-6 3 -10 1 -10 -4 0 -8 69 -11 213 -10 l212 0 -45 18 c-59 24 -81 56 -90 132
-10 78 -38 283 -50 364 -23 159 -42 305 -46 355 -3 30 -8 62 -11 70 -4 8 -13
65 -20 125 -7 61 -18 137 -23 170 -5 33 -16 116 -25 185 -9 69 -20 152 -25
185 -5 33 -16 114 -25 180 -8 66 -20 147 -25 180 -5 33 -17 114 -25 180 -9 66
-20 149 -25 185 -24 158 -24 183 2 207 12 12 34 23 48 26 14 2 -40 4 -119 3
l-143 -1 -13 -40 c-7 -22 -20 -67 -30 -100 -9 -33 -21 -68 -26 -77 -5 -10 -9
-24 -9 -31 0 -7 -11 -46 -24 -87 -13 -41 -31 -102 -41 -135 -9 -33 -20 -67
-25 -75 -4 -9 -11 -35 -15 -58 -4 -23 -11 -44 -16 -48 -5 -3 -9 -16 -9 -29 0
-13 -4 -26 -9 -29 -5 -4 -12 -29 -16 -56 -4 -27 -11 -52 -16 -56 -5 -3 -9 -16
-9 -29 0 -13 -4 -26 -9 -29 -5 -4 -12 -25 -16 -48 -4 -23 -11 -49 -15 -58 -5
-8 -16 -42 -25 -75 -9 -33 -20 -69 -25 -80 -4 -11 -15 -49 -25 -85 -9 -36 -20
-72 -25 -80 -4 -9 -11 -35 -15 -58 -4 -23 -11 -44 -16 -48 -5 -3 -9 -16 -9
-29 0 -13 -4 -27 -10 -30 -5 -3 -10 -13 -10 -22 0 -15 -38 -145 -80 -273 -10
-30 -26 -82 -35 -115 -9 -33 -21 -71 -25 -85 -5 -14 -21 -67 -36 -117 -16 -53
-33 -93 -40 -93 -7 0 -18 17 -24 38 -6 20 -15 46 -20 57 -5 11 -27 76 -50 145
-23 69 -45 134 -50 145 -5 11 -16 45 -25 75 -9 30 -20 64 -25 75 -4 11 -15 43
-25 70 -9 28 -20 59 -24 70 -5 11 -16 47 -26 80 -10 33 -22 65 -26 70 -4 6
-10 27 -14 48 -4 20 -11 40 -16 43 -5 3 -9 16 -9 29 0 13 -4 26 -9 29 -5 3
-12 23 -16 43 -4 21 -10 43 -14 48 -4 6 -16 37 -26 70 -10 33 -21 69 -26 80
-4 11 -27 76 -49 145 -23 69 -45 134 -50 145 -5 11 -38 110 -75 220 -36 110
-69 207 -74 215 -5 9 -12 31 -16 50 -4 19 -10 40 -13 45 -12 19 -41 110 -42
128 0 15 -13 17 -147 16 -82 -1 -139 -4 -128 -9z"/>
<path d="M14675 8998 c-4 -18 -10 -37 -14 -43 -4 -5 -26 -71 -50 -145 -24 -74
-47 -144 -51 -155 -5 -11 -16 -45 -26 -75 -9 -30 -20 -64 -25 -75 -4 -11 -34
-99 -65 -195 -31 -96 -60 -184 -65 -195 -4 -11 -15 -45 -24 -75 -9 -30 -20
-62 -24 -70 -4 -8 -15 -42 -25 -75 -11 -33 -22 -69 -27 -80 -4 -11 -15 -45
-24 -75 -9 -30 -20 -62 -25 -71 -5 -9 -12 -33 -15 -53 -4 -20 -11 -39 -16 -42
-5 -3 -9 -16 -9 -29 0 -13 -4 -26 -9 -29 -5 -4 -12 -24 -16 -46 -4 -22 -11
-42 -16 -46 -5 -3 -9 -16 -9 -29 0 -13 -4 -26 -9 -29 -5 -4 -12 -24 -16 -46
-4 -22 -11 -42 -16 -46 -5 -3 -9 -16 -9 -29 0 -13 -4 -26 -9 -29 -5 -4 -12
-24 -16 -46 -4 -22 -11 -42 -16 -46 -5 -3 -9 -16 -9 -29 0 -13 -4 -26 -9 -30
-6 -3 -13 -26 -17 -50 -3 -25 -10 -45 -15 -45 -5 0 -9 -11 -9 -24 0 -14 -4
-27 -9 -30 -5 -3 -12 -22 -16 -42 -3 -20 -10 -44 -14 -53 -5 -9 -16 -41 -26
-71 -9 -30 -20 -64 -25 -75 -5 -11 -16 -45 -26 -75 -21 -70 -57 -109 -106
-116 -74 -12 -36 -24 77 -24 70 0 115 4 115 10 0 6 -3 9 -7 8 -16 -4 -49 13
-60 30 -9 16 -5 39 23 123 19 57 38 111 43 119 5 9 12 31 15 50 4 19 12 46 18
60 22 52 27 66 34 100 3 19 10 41 14 50 18 37 29 67 36 100 3 19 10 41 15 50
4 8 15 40 24 70 10 30 22 67 28 83 l12 27 501 0 c390 0 504 -3 511 -12 5 -7
33 -76 62 -153 30 -77 59 -153 66 -170 7 -16 18 -46 25 -65 18 -48 40 -101 51
-122 5 -10 9 -23 9 -29 0 -6 7 -27 16 -47 39 -88 44 -101 44 -111 0 -6 4 -19
9 -29 41 -81 38 -102 -17 -125 -35 -14 -25 -15 178 -15 l215 -1 -53 21 c-32
13 -63 34 -76 52 -13 17 -63 135 -111 261 -48 127 -92 234 -96 239 -5 6 -9 16
-9 24 0 8 -7 29 -15 48 -8 19 -22 49 -30 68 -8 19 -15 39 -15 45 0 6 -4 19 -9
29 -8 15 -18 41 -51 127 -33 86 -43 112 -51 127 -5 10 -9 23 -9 29 0 10 -5 23
-44 111 -9 20 -16 41 -16 47 0 6 -4 19 -9 29 -19 34 -41 90 -41 101 0 6 -4 19
-9 29 -11 21 -33 74 -51 122 -7 19 -18 49 -25 65 -7 17 -25 64 -40 105 -15 41
-32 79 -36 84 -5 6 -9 16 -9 24 0 8 -7 30 -16 50 -39 88 -44 101 -44 111 0 6
-4 19 -9 29 -15 29 -29 63 -61 147 -17 44 -35 89 -39 100 -5 11 -15 36 -21 55
-7 19 -19 49 -25 65 -7 17 -18 46 -25 65 -7 19 -19 49 -26 65 -7 17 -16 44
-21 60 -14 45 -49 46 -58 3z m-37 -300 c7 -18 18 -41 23 -50 5 -10 9 -23 9
-29 0 -6 7 -26 15 -45 8 -19 22 -49 30 -68 8 -19 15 -39 15 -45 0 -6 4 -19 9
-29 19 -34 41 -90 41 -101 0 -6 4 -19 9 -29 19 -34 41 -90 41 -101 0 -6 4 -19
9 -29 20 -38 41 -91 41 -104 0 -8 4 -18 9 -24 4 -5 16 -31 26 -59 10 -27 23
-63 30 -80 7 -16 29 -75 50 -130 21 -55 42 -104 46 -110 5 -5 9 -15 9 -23 0
-13 21 -66 41 -104 5 -10 9 -23 9 -29 0 -6 6 -25 14 -42 31 -72 35 -87 27 -91
-6 -4 -774 -9 -960 -6 -10 0 -12 9 -6 38 4 20 10 42 14 47 4 6 15 37 25 70 10
33 22 69 26 80 5 11 16 45 25 75 9 30 20 64 25 75 5 11 16 47 26 80 9 33 21
65 24 70 4 6 11 26 15 45 4 19 10 40 14 45 4 6 16 39 26 75 10 36 21 70 25 75
4 6 15 39 25 75 10 36 21 70 25 75 4 6 15 39 25 75 10 36 22 70 26 75 4 6 10
27 14 48 4 20 11 40 16 43 5 3 9 14 9 25 0 10 4 27 9 37 6 9 17 43 27 75 9 31
20 57 23 57 3 0 12 -15 19 -32z"/>
<path d="M15975 9021 c36 -7 65 -28 83 -58 9 -18 12 -279 12 -1211 0 -1335 6
-1237 -74 -1272 l-41 -19 215 1 c118 0 206 3 195 5 -23 6 -67 33 -77 48 -4 5
-8 251 -8 546 l0 537 233 5 c127 3 246 8 262 12 28 5 32 2 51 -37 43 -89 89
-173 97 -176 4 -2 7 -9 7 -15 0 -12 8 -28 52 -107 14 -25 48 -88 75 -140 28
-52 70 -131 94 -175 207 -384 233 -439 220 -464 -7 -12 -18 -21 -26 -21 -7 0
-17 -4 -20 -10 -4 -7 65 -10 200 -10 122 0 204 4 201 9 -4 5 -23 12 -44 16
-55 9 -100 54 -139 138 -10 20 -21 37 -25 37 -5 0 -8 6 -8 13 0 6 -6 23 -14
37 -40 75 -99 186 -141 265 -26 50 -60 113 -75 140 -15 28 -50 93 -78 145
-118 225 -172 323 -184 338 -6 6 -30 12 -54 12 -23 0 -45 4 -48 9 -7 10 46 31
80 31 13 0 25 4 28 9 3 4 21 11 40 14 33 5 173 70 228 105 53 34 135 108 169
152 40 53 99 166 99 191 0 10 4 20 9 23 30 19 31 331 1 371 -4 6 -11 25 -15
44 -13 63 -94 190 -153 243 -17 14 -50 39 -74 55 -23 15 -45 30 -48 33 -8 9
-113 57 -140 64 -14 4 -34 11 -45 15 -39 16 -101 32 -170 43 -73 12 -1005 21
-950 9z m897 -39 c6 -6 22 -12 34 -12 47 0 182 -65 249 -121 78 -64 165 -193
165 -243 0 -8 4 -17 9 -20 20 -13 43 -216 37 -317 -11 -172 -67 -314 -164
-420 -53 -58 -168 -139 -197 -139 -8 0 -15 -4 -15 -9 0 -6 -20 -13 -45 -17
-25 -3 -48 -10 -51 -15 -3 -5 -20 -9 -39 -9 -19 0 -37 -4 -40 -10 -4 -6 -105
-10 -271 -10 l-264 0 0 681 0 681 290 -3 c213 -3 292 -7 302 -17z"/>
<path d="M17670 9010 c0 -18 6 -20 54 -20 66 0 66 2 66 -177 0 -82 4 -133 10
-133 6 0 13 -1 18 -2 4 -2 9 67 12 152 l5 155 58 3 c49 3 58 6 55 20 -3 15
-21 17 -141 20 -132 2 -137 2 -137 -18z"/>
<path d="M17992 8858 c3 -171 3 -173 26 -176 22 -3 22 -2 22 117 0 67 4 121 9
121 4 0 26 -54 47 -120 35 -107 42 -120 62 -120 13 0 25 7 28 18 3 9 9 24 13
32 5 9 12 31 16 50 4 19 10 40 14 45 4 6 13 29 21 53 7 23 17 42 22 42 4 0 8
-53 8 -119 0 -110 1 -119 20 -124 19 -5 20 0 20 174 l0 179 -30 0 c-24 0 -31
-5 -36 -27 -5 -27 -18 -62 -34 -94 -5 -9 -12 -33 -15 -53 -4 -20 -11 -39 -16
-42 -5 -3 -9 -17 -9 -31 0 -19 -4 -24 -16 -19 -9 3 -18 6 -20 6 -2 0 -4 9 -4
20 0 11 -4 28 -9 38 -6 9 -18 44 -27 77 -9 33 -21 64 -26 70 -4 5 -8 19 -8 32
0 20 -5 23 -40 23 l-40 0 2 -172z"/>
</g>
</svg>
